<svg xmlns="http://www.w3.org/2000/svg" version="1.1" viewBox="-5.0 -10.0 110.0 135.0">
 <path d="m71.293 31.395c1.0742 0 1.9453 0.87109 1.9453 1.9453 0 1.0703-0.87109 1.9414-1.9453 1.9414h-42.59c-1.0742 0-1.9453-0.87109-1.9453-1.9414 0-1.0742 0.87109-1.9453 1.9414-1.9453zm0 16.656c1.0742 0 1.9453 0.87109 1.9453 1.9453 0 1.0703-0.87109 1.9414-1.9453 1.9414h-42.59c-1.0742 0-1.9453-0.87109-1.9453-1.9414 0-1.0742 0.87109-1.9453 1.9453-1.9453zm-21.137 16.656c1.0742 0 1.9414 0.87109 1.9414 1.9453 0 1.0703-0.86719 1.9414-1.9414 1.9414h-21.453c-1.0742 0-1.9453-0.87109-1.9453-1.9453 0-1.0703 0.87109-1.9414 1.9453-1.9414zm15.875 25.324v0.003906l-0.058594-13.707c0-0.80469 0.64062-1.4648 1.4414-1.4922h13.801zm-42.289-84.008-3.5352 0.042968c-2.9297 0.035156-5.2969 2.4102-5.3125 5.3438v77.164c0.015625 2.9336 2.3828 5.3086 5.3125 5.3398l46.641 0.007813c0.49609 0 0.98438-0.19141 1.3672-0.57031l16.316-16.316c0.37891-0.37891 0.57031-0.875 0.57031-1.3711v-64.254c-0.015624-2.9336-2.3828-5.3086-5.3125-5.3438z"/>
<text x="0.0" y="117.5" font-size="5.0" font-weight="bold" font-family="Arbeit Regular, Helvetica, Arial-Unicode, Arial, Sans-serif" fill="#000000">Created by Desi Ratna</text><text x="0.0" y="122.5" font-size="5.0" font-weight="bold" font-family="Arbeit Regular, Helvetica, Arial-Unicode, Arial, Sans-serif" fill="#000000">from Noun Project</text></svg>