<svg xmlns="http://www.w3.org/2000/svg" viewBox="12 4 76 93">
 <path fill="#e8eaed" fill-rule="evenodd" d="M71.293 31.395C72.3672 31.395 73.2383 32.2661 73.2383 33.3403C73.2383 34.4106 72.3672 35.2817 71.293 35.2817L28.703 35.2817C27.6288 35.2817 26.7577 34.4106 26.7577 33.3403C26.7577 32.2661 27.6288 31.395 28.6991 31.395ZM71.293 48.051C72.3672 48.051 73.2383 48.9221 73.2383 49.9963C73.2383 51.0666 72.3672 51.9377 71.293 51.9377L28.703 51.9377C27.6288 51.9377 26.7577 51.0666 26.7577 49.9963C26.7577 48.9221 27.6288 48.051 28.703 48.051ZM50.156 64.707C51.2302 64.707 52.0974 65.5781 52.0974 66.6523C52.0974 67.7226 51.2302 68.5937 50.156 68.5937L28.703 68.5937C27.6288 68.5937 26.7577 67.7226 26.7577 66.6484C26.7577 65.5781 27.6288 64.707 28.703 64.707ZM66.031 9.969L66.031 9.9651L65.9724 23.6721C65.9724 24.4768 66.613 25.1369 67.4138 25.1643L81.2148 25.1643ZM23.742 93.977L20.2068 93.934C17.2771 93.8989 14.9099 91.5238 14.8943 88.5902L14.8943 11.4262C14.9099 8.4926 17.2771 6.1176 20.2068 6.0864L66.8478 6.0786C67.3439 6.0786 67.8322 6.27 68.215 6.6489L84.531 22.9649C84.9099 23.3438 85.1013 23.8399 85.1013 24.336L85.1013 88.59C85.0857 91.5236 82.7185 93.8986 79.7888 93.9338Z"/>
</svg>
